<svg viewBox="0 0 330 200" xmlns="http://www.w3.org/2000/svg"><g><g><g><g><g><line x1="70" y1="178" x2="65" y2="178" style="visibility: inherit;" fill="rgb(0, 0, 0)" stroke="rgb(204, 204, 204)" stroke-width="1px"></line><line x1="70" y1="155.75" x2="65" y2="155.75" style="visibility: inherit;" fill="rgb(0, 0, 0)" stroke="rgb(204, 204, 204)" stroke-width="1px"></line><line x1="70" y1="133.5" x2="65" y2="133.5" style="visibility: inherit;" fill="rgb(0, 0, 0)" stroke="rgb(204, 204, 204)" stroke-width="1px"></line><line x1="70" y1="111.24999999999999" x2="65" y2="111.24999999999999" style="visibility: inherit;" fill="rgb(0, 0, 0)" stroke="rgb(204, 204, 204)" stroke-width="1px"></line><line x1="70" y1="88.99999999999999" x2="65" y2="88.99999999999999" style="visibility: inherit;" fill="rgb(0, 0, 0)" stroke="rgb(204, 204, 204)" stroke-width="1px"></line><line x1="70" y1="66.75" x2="65" y2="66.75" style="visibility: inherit;" fill="rgb(0, 0, 0)" stroke="rgb(204, 204, 204)" stroke-width="1px"></line><line x1="70" y1="44.5" x2="65" y2="44.5" style="visibility: inherit;" fill="rgb(0, 0, 0)" stroke="rgb(204, 204, 204)" stroke-width="1px"></line><line x1="70" y1="22.25" x2="65" y2="22.25" style="visibility: inherit;" fill="rgb(0, 0, 0)" stroke="rgb(204, 204, 204)" stroke-width="1px"></line><line x1="70" y1="0" x2="65" y2="0" style="visibility: inherit;" fill="rgb(0, 0, 0)" stroke="rgb(204, 204, 204)" stroke-width="1px"></line></g><g transform="translate(60, 0)"><text x="0" y="178" dx="0em" dy="0.3em" style="text-anchor: end; visibility: hidden; font-family: &quot;Helvetica Neue&quot;, sans-serif; font-size: 12px; font-weight: 200;" fill="rgb(50, 49, 63)" stroke="none" stroke-width="1px">-0.05</text><text x="0" y="155.75" dx="0em" dy="0.3em" style="text-anchor: end; visibility: inherit; font-family: &quot;Helvetica Neue&quot;, sans-serif; font-size: 12px; font-weight: 200;" fill="rgb(50, 49, 63)" stroke="none" stroke-width="1px">0</text><text x="0" y="133.5" dx="0em" dy="0.3em" style="text-anchor: end; visibility: hidden; font-family: &quot;Helvetica Neue&quot;, sans-serif; font-size: 12px; font-weight: 200;" fill="rgb(50, 49, 63)" stroke="none" stroke-width="1px">0.05</text><text x="0" y="111.24999999999999" dx="0em" dy="0.3em" style="text-anchor: end; visibility: inherit; font-family: &quot;Helvetica Neue&quot;, sans-serif; font-size: 12px; font-weight: 200;" fill="rgb(50, 49, 63)" stroke="none" stroke-width="1px">0.1</text><text x="0" y="88.99999999999999" dx="0em" dy="0.3em" style="text-anchor: end; visibility: hidden; font-family: &quot;Helvetica Neue&quot;, sans-serif; font-size: 12px; font-weight: 200;" fill="rgb(50, 49, 63)" stroke="none" stroke-width="1px">0.15</text><text x="0" y="66.75" dx="0em" dy="0.3em" style="text-anchor: end; visibility: inherit; font-family: &quot;Helvetica Neue&quot;, sans-serif; font-size: 12px; font-weight: 200;" fill="rgb(50, 49, 63)" stroke="none" stroke-width="1px">0.2</text><text x="0" y="44.5" dx="0em" dy="0.3em" style="text-anchor: end; visibility: hidden; font-family: &quot;Helvetica Neue&quot;, sans-serif; font-size: 12px; font-weight: 200;" fill="rgb(50, 49, 63)" stroke="none" stroke-width="1px">0.25</text><text x="0" y="22.25" dx="0em" dy="0.3em" style="text-anchor: end; visibility: inherit; font-family: &quot;Helvetica Neue&quot;, sans-serif; font-size: 12px; font-weight: 200;" fill="rgb(50, 49, 63)" stroke="none" stroke-width="1px">0.3</text><text x="0" y="0" dx="0em" dy="0.3em" style="text-anchor: end; visibility: hidden; font-family: &quot;Helvetica Neue&quot;, sans-serif; font-size: 12px; font-weight: 200;" fill="rgb(50, 49, 63)" stroke="none" stroke-width="1px">0.35</text></g><line x1="70" y1="0" x2="70" y2="178" fill="rgb(0, 0, 0)" stroke="rgb(204, 204, 204)" stroke-width="1px"></line></g></g><g transform="translate(70, 0)" clip-path="url(#clip_0)"><clipPath id="clip_0"><rect width="260" height="178"></rect></clipPath><g><g><g><line x1="0" y1="0" x2="0" y2="178" fill="rgb(0, 0, 0)" stroke="rgb(60, 60, 60)" stroke-width="1px" opacity="0.25"></line><line x1="28.888888888888886" y1="0" x2="28.888888888888886" y2="178" fill="rgb(0, 0, 0)" stroke="rgb(60, 60, 60)" stroke-width="1px" opacity="0.25"></line><line x1="57.77777777777777" y1="0" x2="57.77777777777777" y2="178" fill="rgb(0, 0, 0)" stroke="rgb(60, 60, 60)" stroke-width="1px" opacity="0.25"></line><line x1="86.66666666666666" y1="0" x2="86.66666666666666" y2="178" fill="rgb(0, 0, 0)" stroke="rgb(60, 60, 60)" stroke-width="1px" opacity="0.25"></line><line x1="115.55555555555554" y1="0" x2="115.55555555555554" y2="178" fill="rgb(0, 0, 0)" stroke="rgb(60, 60, 60)" stroke-width="1px" opacity="0.25"></line><line x1="144.44444444444446" y1="0" x2="144.44444444444446" y2="178" fill="rgb(0, 0, 0)" stroke="rgb(60, 60, 60)" stroke-width="1px" opacity="0.25"></line><line x1="173.33333333333331" y1="0" x2="173.33333333333331" y2="178" fill="rgb(0, 0, 0)" stroke="rgb(60, 60, 60)" stroke-width="1px" opacity="0.25"></line><line x1="202.22222222222223" y1="0" x2="202.22222222222223" y2="178" fill="rgb(0, 0, 0)" stroke="rgb(60, 60, 60)" stroke-width="1px" opacity="0.25"></line><line x1="231.1111111111111" y1="0" x2="231.1111111111111" y2="178" fill="rgb(0, 0, 0)" stroke="rgb(60, 60, 60)" stroke-width="1px" opacity="0.25"></line><line x1="260" y1="0" x2="260" y2="178" fill="rgb(0, 0, 0)" stroke="rgb(60, 60, 60)" stroke-width="1px" opacity="0.25"></line></g><g><line x1="0" y1="178" x2="260" y2="178" fill="rgb(0, 0, 0)" stroke="rgb(60, 60, 60)" stroke-width="1px" opacity="0.25"></line><line x1="0" y1="155.75" x2="260" y2="155.75" fill="rgb(0, 0, 0)" stroke="rgb(60, 60, 60)" stroke-width="1px" opacity="0.25"></line><line x1="0" y1="133.5" x2="260" y2="133.5" fill="rgb(0, 0, 0)" stroke="rgb(60, 60, 60)" stroke-width="1px" opacity="0.25"></line><line x1="0" y1="111.24999999999999" x2="260" y2="111.24999999999999" fill="rgb(0, 0, 0)" stroke="rgb(60, 60, 60)" stroke-width="1px" opacity="0.25"></line><line x1="0" y1="88.99999999999999" x2="260" y2="88.99999999999999" fill="rgb(0, 0, 0)" stroke="rgb(60, 60, 60)" stroke-width="1px" opacity="0.25"></line><line x1="0" y1="66.75" x2="260" y2="66.75" fill="rgb(0, 0, 0)" stroke="rgb(60, 60, 60)" stroke-width="1px" opacity="0.25"></line><line x1="0" y1="44.5" x2="260" y2="44.5" fill="rgb(0, 0, 0)" stroke="rgb(60, 60, 60)" stroke-width="1px" opacity="0.25"></line><line x1="0" y1="22.25" x2="260" y2="22.25" fill="rgb(0, 0, 0)" stroke="rgb(60, 60, 60)" stroke-width="1px" opacity="0.25"></line><line x1="0" y1="0" x2="260" y2="0" fill="rgb(0, 0, 0)" stroke="rgb(60, 60, 60)" stroke-width="1px" opacity="0.25"></line></g></g></g><g><g><line x1="0" y1="155.75" x2="260" y2="155.75" fill="rgb(0, 0, 0)" stroke="rgb(153, 153, 153)" stroke-width="1.5px"></line></g></g><g><g><line x1="0" y1="0" x2="0" y2="178" fill="rgb(0, 0, 0)" stroke="rgb(153, 153, 153)" stroke-width="1.5px"></line></g></g><g><g><g><g><g><path stroke="rgb(0, 153, 136)" stroke-width="2px" d="M18.546666666666667,-13.873384028673172L19.817777777777778,24.560545951128006L20.973333333333333,49.00053073465824L22.128888888888888,63.077436581254005L23.284444444444443,65.73713739216328L24.44,82.84067799150944L25.595555555555556,86.62725378572941L26.75111111111111,90.48212242126465L27.906666666666666,95.59107546508312L29.177777777777777,97.31816355884075L30.333333333333332,98.41856752336025L31.48888888888889,100.60268849879503L32.644444444444446,103.91427793353796L33.800000000000004,109.56306204944849L34.955555555555556,103.42732590436935L36.111111111111114,105.1929899379611L37.266666666666666,109.01377846300602L38.53777777777778,115.61944481730461L39.693333333333335,113.83533661067486L40.848888888888894,116.13438305258751L42.004444444444445,115.82924687117338L43.160000000000004,118.17617256939411L44.315555555555555,117.8333158493042L45.471111111111114,122.56653890758753L46.62666666666667,119.15700935572386L47.89777777777778,123.28727074712515L49.053333333333335,123.36546369642019L50.20888888888889,126.05241135507822L51.364444444444445,122.97222119569778L52.52,124.25879427045584L53.67555555555556,123.74347143620253L54.831111111111106,124.42646284401417L55.986666666666665,128.9591274857521L57.25777777777778,126.95536353439093L58.41333333333333,129.65637723729014L59.568888888888885,132.18526135012507L60.724444444444444,130.59584145247936L61.879999999999995,131.83391361311078L63.035555555555554,131.58607273176312L64.19111111111111,132.1214643381536L65.34666666666668,133.4781852811575L66.61777777777779,133.76284488290548L67.77333333333333,135.3304901793599L68.92888888888889,136.01580410078168L70.08444444444444,135.2396369613707L71.24000000000001,135.2968327961862L72.39555555555556,137.5775461345911L73.55111111111111,137.20265663042665L74.70666666666666,138.11961683258414L75.97777777777777,139.94202413409948L77.13333333333334,139.9903808236122L78.28888888888889,140.38082171976566L79.44444444444446,140.50237986072898L80.6,141.34863850474358L81.75555555555556,141.6697504632175L82.91111111111111,141.39928455278277L84.06666666666666,142.7904130127281L85.33777777777779,142.81736146472394L86.49333333333334,143.28154589794576L87.64888888888888,143.4945548772812L88.80444444444444,143.143969707191L89.96,144.14128539897501L91.11555555555556,144.4341052956879L92.27111111111111,143.35379331186414L93.42666666666666,143.95710725151002L94.69777777777777,145.11330707743764L95.85333333333332,145.95831660367548L97.00888888888889,146.47434481233358L98.16444444444444,145.49903166294098L99.32000000000001,145.94218997098505L100.47555555555554,146.80854225344956L101.63111111111111,146.81035832315683L102.78666666666666,146.5482474938035L104.05777777777777,146.85234011895955L105.21333333333334,147.26237649843097L106.36888888888889,147.90887079015374L107.52444444444444,148.0918835364282L108.67999999999999,148.80410985369235L109.83555555555556,148.2458864133805L110.99111111111111,148.69566827826202L112.14666666666668,148.80788953322917L113.41777777777779,148.93494312930852L114.57333333333332,148.9956471864134L115.72888888888889,149.579729934223L116.88444444444444,150.07694926392287L118.04,149.96110747382045L119.19555555555556,149.78115411289036L120.35111111111111,149.84361207392067L121.50666666666666,150.58297002501786L122.77777777777777,150.72737533412874L123.93333333333334,150.72669109608978L125.08888888888889,150.90915636904538L126.24444444444445,150.94796107895672L127.39999999999999,151.0966011211276L128.55555555555557,151.04251067433506L129.7111111111111,151.47817054577172L130.86666666666665,151.67609313316643L132.13777777777779,151.46810922119766L133.29333333333335,151.37249161768705L134.4488888888889,151.80231329333037L135.60444444444445,152.07146501913667L136.76000000000002,152.20980833563954L137.91555555555556,152.16250597778708L139.0711111111111,152.44692375464365L140.22666666666666,152.46064933761954L141.4977777777778,152.61960765626281L142.65333333333334,152.3067857120186L143.8088888888889,152.79355207271874L144.96444444444444,152.94633028376848L146.12,152.90768886264414L147.27555555555554,153.03997888974845L148.4311111111111,153.28301580669358L149.58666666666667,153.2696679844521L150.85777777777778,153.42579485895112L152.01333333333332,153.4479548879899L153.1688888888889,153.48738726507872L154.32444444444442,153.40161423478276L155.48,153.52131797047332L156.63555555555556,153.8312029959634L157.79111111111112,153.7691777087748L158.94666666666666,153.80089199682698L160.21777777777777,153.91401134012267L161.37333333333333,153.82762742741033L162.52888888888887,154.03281978494488L163.68444444444444,154.06675919354893L164.84,153.9398271315731L165.99555555555557,154.25831776624545L167.1511111111111,154.35869737225585L168.30666666666667,154.29780671419576L169.57777777777778,154.20280890353024L170.73333333333332,154.3792612948455L171.88888888888889,154.3771214450244L173.04444444444445,154.4407934001647L174.20000000000002,154.50913255498745L175.35555555555555,154.6518527569715L176.51111111111112,154.66770347720012L177.66666666666666,154.6171140000224L178.93777777777777,154.6726520806551L180.09333333333333,154.72654691245407L181.2488888888889,154.74815563461743L182.40444444444447,154.78894498711452L183.56,154.73604283924215L184.71555555555554,154.86374057643116L185.8711111111111,154.82318154815584L187.02666666666667,154.9209089028882L188.29777777777778,154.895084201009L189.45333333333335,154.91965020122007L190.6088888888889,154.94982112012804L191.76444444444442,154.9927508404944L192.92,155.0198384920368L194.07555555555555,155.04523212602362L195.23111111111112,155.11725408537313L196.38666666666666,155.13464677601587L197.6577777777778,155.14859848702326L198.81333333333333,155.1238799734274L199.96888888888887,155.1669244414661L201.12444444444444,155.21951477613766L202.28,155.1959235353861L203.43555555555557,155.2375981286168L204.5911111111111,155.27389595157L205.74666666666667,155.24916013516486L207.01777777777778,155.29249864735175L208.17333333333332,155.27604730206076L209.32888888888888,155.33288905094378L210.48444444444445,155.35525495233014L211.64,155.33607066975674L212.79555555555555,155.36393093835795L213.95111111111112,155.3631730597699L215.10666666666668,155.40296560985735L216.37777777777777,155.43749274412403L217.53333333333333,155.41803151299246L218.6888888888889,155.4539869838045L219.84444444444443,155.4560076825437L221,155.4743633729522L222.15555555555557,155.46354691544548L223.31111111111113,155.4119909934816L224.46666666666664,155.4848267029156L225.73777777777778,155.52002740342868" style="fill: none;" fill="none"></path></g><g><path stroke="rgb(238, 51, 119)" stroke-width="2px" d="M19.817777777777778,-36.516714721918106L20.973333333333333,27.62404915690422L22.128888888888888,32.71009203791618L23.284444444444443,47.893953293561935L24.44,61.12993349134922L25.595555555555556,68.38734921813011L26.75111111111111,79.42616191506386L27.906666666666666,77.77544324100018L29.177777777777777,88.3691820949316L30.333333333333332,83.57593175768852L31.48888888888889,83.55235186219215L32.644444444444446,98.99250854551792L33.800000000000004,86.50918190181255L34.955555555555556,99.6957742869854L36.111111111111114,94.17083767056465L37.266666666666666,98.52948454022408L38.53777777777778,106.21484619379044L39.693333333333335,108.61446195095778L40.848888888888894,100.03418159484863L42.004444444444445,107.4804453626275L43.160000000000004,111.81075126677752L44.315555555555555,109.12158884853125L45.471111111111114,110.8956444337964L46.62666666666667,116.99480057507753L47.89777777777778,121.43403087556362L49.053333333333335,115.20691931992769L50.20888888888889,108.1713707819581L51.364444444444445,117.96010088920593L52.52,105.68607234209776L53.67555555555556,124.3146440088749L54.831111111111106,124.30835780501366L55.986666666666665,128.32241062819958L57.25777777777778,125.5298640280962L58.41333333333333,113.29070468246937L59.568888888888885,128.13799542188644L60.724444444444444,129.28369917720556L61.879999999999995,128.77539030089974L63.035555555555554,130.97965796291828L64.19111111111111,129.03655621036887L65.34666666666668,129.1877085790038L66.61777777777779,123.01025007665157L67.77333333333333,130.674574829638L68.92888888888889,134.4950865097344L70.08444444444444,135.6479882337153L71.24000000000001,130.0028561502695L72.39555555555556,136.6859760954976L73.55111111111111,131.48522325605154L74.70666666666666,134.81723456457257L75.97777777777777,139.42673113942146L77.13333333333334,137.26353102177382L78.28888888888889,135.24638402089477L79.44444444444446,139.3436693660915L80.6,135.9673263952136L81.75555555555556,133.67072182521224L82.91111111111111,137.38525991141796L84.06666666666666,139.1445565111935L85.33777777777779,141.6359273046255L86.49333333333334,141.3083981797099L87.64888888888888,138.5270347893238L88.80444444444444,137.65428854897618L89.96,138.00741339847445L91.11555555555556,142.64550540409982L92.27111111111111,144.30339386500418L93.42666666666666,144.14576796628535L94.69777777777777,139.93463552370667L95.85333333333332,143.97654027491808L97.00888888888889,142.64069708809257L98.16444444444444,143.757141482085L99.32000000000001,144.28071993216872L100.47555555555554,145.66839114576578L101.63111111111111,145.01389404572546L102.78666666666666,145.51324193179607L104.05777777777777,145.15134258940816L105.21333333333334,143.4402808342129L106.36888888888889,146.77730684913695L107.52444444444444,148.1817752569914L108.67999999999999,146.6612217836082L109.83555555555556,148.091364659369L110.99111111111111,144.14902628213167L112.14666666666668,138.36572867631912L113.41777777777779,147.4108192678541L114.57333333333332,147.56599003262818L115.72888888888889,148.4373280107975L116.88444444444444,146.07150557264686L118.04,147.21036114543676L119.19555555555556,148.34478305466473L120.35111111111111,149.81604196410626L121.50666666666666,149.35373369418085L122.77777777777777,148.37355669401586L123.93333333333334,149.99215389415622L125.08888888888889,150.13770885579288L126.24444444444445,149.91053602471948L127.39999999999999,149.78941304422915L128.55555555555557,150.60603311564773L129.7111111111111,150.3148361602798L130.86666666666665,151.43077576812357L132.13777777777779,150.67887276224792L133.29333333333335,151.67685114126652L134.4488888888889,150.27815254684538L135.60444444444445,150.03384226746857L136.76000000000002,150.8566217245534L137.91555555555556,151.3422641279176L139.0711111111111,152.4262755974196L140.22666666666666,152.08635455276817L141.4977777777778,151.48380566667765L142.65333333333334,152.34755962667987L143.8088888888889,152.36015835125L144.96444444444444,152.67402385175228L146.12,152.05900119431317L147.27555555555554,152.32189945690334L148.4311111111111,151.84053986147046L149.58666666666667,152.95545352669433L150.85777777777778,152.32924061408266L152.01333333333332,152.74935489566997L153.1688888888889,152.29567958787084L154.32444444444442,153.46287716226652L155.48,153.45863517653197L156.63555555555556,152.82178155425936L157.79111111111112,153.58340190071613L158.94666666666666,153.2441532826051L160.21777777777777,153.0305945505388L161.37333333333333,153.45415571751073L162.52888888888887,152.26935859583318L163.68444444444444,153.80122748482972L164.84,153.88585562864318L165.99555555555557,154.15321107418276L167.1511111111111,154.0671567437239L168.30666666666667,152.95455502392724L169.57777777777778,154.058869630564L170.73333333333332,153.5443398244679L171.88888888888889,153.8236554483883L173.04444444444445,154.33888845308684L174.20000000000002,153.89420697977766L175.35555555555555,154.37229302874766L176.51111111111112,154.48208505217917L177.66666666666666,154.1750683558639L178.93777777777777,152.6877699494362L180.09333333333333,154.6510520617012L181.2488888888889,153.9640692998655L182.40444444444447,154.4622051604092L183.56,154.49916499713436L184.71555555555554,154.28649026248604L185.8711111111111,154.6154573855456L187.02666666666667,154.13854772038758L188.29777777777778,154.185030215187L189.45333333333335,154.85845461999997L190.6088888888889,154.18851906247437L191.76444444444442,154.8280456061475L192.92,154.89472110103816L194.07555555555555,154.8414100059308L195.23111111111112,154.86936906632036L196.38666666666666,155.04135961225256L197.6577777777778,154.96295379695948L198.81333333333333,154.73706929991022L199.96888888888887,154.8035522880964L201.12444444444444,155.10098193294834L202.28,155.15744364168495L203.43555555555557,155.1954928819323L204.5911111111111,154.79085109359585L205.74666666666667,155.20245146052912L207.01777777777778,155.181535161566L208.17333333333332,155.1992264033761L209.32888888888888,155.1268006254686L210.48444444444445,155.25319137889892L211.64,155.20415713416878L212.79555555555555,155.28682638239115L213.95111111111112,155.25131671794225L215.10666666666668,155.30581942747813L216.37777777777777,155.1594308745116L217.53333333333333,155.21451343537774L218.6888888888889,155.26152102381457L219.84444444444443,155.3652147135581L221,155.41049139940878L222.15555555555557,155.3008704095846L223.31111111111113,155.45688463450642L224.46666666666664,155.46122960821958L225.73777777777778,155.47825122094946" style="fill: none;" fill="none"></path></g></g></g></g></g></g><g transform="translate(70, 178)" clip-path="url(#clip_1)"><clipPath id="clip_1"><rect width="260" height="22"></rect></clipPath><g><g><line x1="0" y1="0" x2="0" y2="5" style="visibility: inherit;" fill="rgb(0, 0, 0)" stroke="rgb(204, 204, 204)" stroke-width="1px"></line><line x1="28.888888888888886" y1="0" x2="28.888888888888886" y2="5" style="visibility: inherit;" fill="rgb(0, 0, 0)" stroke="rgb(204, 204, 204)" stroke-width="1px"></line><line x1="57.77777777777777" y1="0" x2="57.77777777777777" y2="5" style="visibility: inherit;" fill="rgb(0, 0, 0)" stroke="rgb(204, 204, 204)" stroke-width="1px"></line><line x1="86.66666666666666" y1="0" x2="86.66666666666666" y2="5" style="visibility: inherit;" fill="rgb(0, 0, 0)" stroke="rgb(204, 204, 204)" stroke-width="1px"></line><line x1="115.55555555555554" y1="0" x2="115.55555555555554" y2="5" style="visibility: inherit;" fill="rgb(0, 0, 0)" stroke="rgb(204, 204, 204)" stroke-width="1px"></line><line x1="144.44444444444446" y1="0" x2="144.44444444444446" y2="5" style="visibility: inherit;" fill="rgb(0, 0, 0)" stroke="rgb(204, 204, 204)" stroke-width="1px"></line><line x1="173.33333333333331" y1="0" x2="173.33333333333331" y2="5" style="visibility: inherit;" fill="rgb(0, 0, 0)" stroke="rgb(204, 204, 204)" stroke-width="1px"></line><line x1="202.22222222222223" y1="0" x2="202.22222222222223" y2="5" style="visibility: inherit;" fill="rgb(0, 0, 0)" stroke="rgb(204, 204, 204)" stroke-width="1px"></line><line x1="231.1111111111111" y1="0" x2="231.1111111111111" y2="5" style="visibility: inherit;" fill="rgb(0, 0, 0)" stroke="rgb(204, 204, 204)" stroke-width="1px"></line><line x1="260" y1="0" x2="260" y2="5" style="visibility: inherit;" fill="rgb(0, 0, 0)" stroke="rgb(204, 204, 204)" stroke-width="1px"></line></g><g transform="translate(0, 8)"><text x="0" y="0" dx="0em" dy="0.95em" style="text-anchor: middle; visibility: hidden; font-family: &quot;Helvetica Neue&quot;, sans-serif; font-size: 12px; font-weight: 200;" fill="rgb(50, 49, 63)" stroke="none" stroke-width="1px">0</text><text x="28.888888888888886" y="0" dx="0em" dy="0.95em" style="text-anchor: middle; visibility: inherit; font-family: &quot;Helvetica Neue&quot;, sans-serif; font-size: 12px; font-weight: 200;" fill="rgb(50, 49, 63)" stroke="none" stroke-width="1px">500</text><text x="57.77777777777777" y="0" dx="0em" dy="0.95em" style="text-anchor: middle; visibility: inherit; font-family: &quot;Helvetica Neue&quot;, sans-serif; font-size: 12px; font-weight: 200;" fill="rgb(50, 49, 63)" stroke="none" stroke-width="1px">1k</text><text x="86.66666666666666" y="0" dx="0em" dy="0.95em" style="text-anchor: middle; visibility: inherit; font-family: &quot;Helvetica Neue&quot;, sans-serif; font-size: 12px; font-weight: 200;" fill="rgb(50, 49, 63)" stroke="none" stroke-width="1px">1.5k</text><text x="115.55555555555554" y="0" dx="0em" dy="0.95em" style="text-anchor: middle; visibility: inherit; font-family: &quot;Helvetica Neue&quot;, sans-serif; font-size: 12px; font-weight: 200;" fill="rgb(50, 49, 63)" stroke="none" stroke-width="1px">2k</text><text x="144.44444444444446" y="0" dx="0em" dy="0.95em" style="text-anchor: middle; visibility: inherit; font-family: &quot;Helvetica Neue&quot;, sans-serif; font-size: 12px; font-weight: 200;" fill="rgb(50, 49, 63)" stroke="none" stroke-width="1px">2.5k</text><text x="173.33333333333331" y="0" dx="0em" dy="0.95em" style="text-anchor: middle; visibility: inherit; font-family: &quot;Helvetica Neue&quot;, sans-serif; font-size: 12px; font-weight: 200;" fill="rgb(50, 49, 63)" stroke="none" stroke-width="1px">3k</text><text x="202.22222222222223" y="0" dx="0em" dy="0.95em" style="text-anchor: middle; visibility: inherit; font-family: &quot;Helvetica Neue&quot;, sans-serif; font-size: 12px; font-weight: 200;" fill="rgb(50, 49, 63)" stroke="none" stroke-width="1px">3.5k</text><text x="231.1111111111111" y="0" dx="0em" dy="0.95em" style="text-anchor: middle; visibility: inherit; font-family: &quot;Helvetica Neue&quot;, sans-serif; font-size: 12px; font-weight: 200;" fill="rgb(50, 49, 63)" stroke="none" stroke-width="1px">4k</text><text x="260" y="0" dx="0em" dy="0.95em" style="text-anchor: middle; visibility: hidden; font-family: &quot;Helvetica Neue&quot;, sans-serif; font-size: 12px; font-weight: 200;" fill="rgb(50, 49, 63)" stroke="none" stroke-width="1px">4.5k</text></g><line x1="0" y1="0" x2="260" y2="0" fill="rgb(0, 0, 0)" stroke="rgb(204, 204, 204)" stroke-width="1px"></line></g></g></g></g></svg>